<svg xmlns="http://www.w3.org/2000/svg" width="920" height="560" viewBox="0 0 920 560" role="img" aria-labelledby="title desc">
  <title id="title">Mark S GitHub activity snapshot</title>
  <desc id="desc">Static private-aware GitHub contribution snapshot with sanitized repository details.</desc>
  <style>
    :root { color-scheme: light dark; }
    .card { fill: #ffffff; stroke: #d0d7de; }
    .title { fill: #24292f; font: 700 24px -apple-system,BlinkMacSystemFont,Segoe UI,sans-serif; }
    .subtitle { fill: #57606a; font: 500 13px -apple-system,BlinkMacSystemFont,Segoe UI,sans-serif; }
    .muted { fill: #6e7781; font: 13px -apple-system,BlinkMacSystemFont,Segoe UI,sans-serif; }
    .month { font-size: 13px; }
    .body { fill: #24292f; font: 600 15px -apple-system,BlinkMacSystemFont,Segoe UI,sans-serif; }
    .small { fill: #57606a; font: 500 12px -apple-system,BlinkMacSystemFont,Segoe UI,sans-serif; }
    .metric { fill: #24292f; font: 700 26px -apple-system,BlinkMacSystemFont,Segoe UI,sans-serif; }
    .ptitle { fill: #24292f; font: 700 15px -apple-system,BlinkMacSystemFont,Segoe UI,sans-serif; }
    .panel { fill: #f6f8fa; stroke: #d0d7de; }
    rect[data-level="0"] { fill: #ebedf0; }
    rect[data-level="1"] { fill: #9be9a8; }
    rect[data-level="2"] { fill: #40c463; }
    rect[data-level="3"] { fill: #30a14e; }
    rect[data-level="4"] { fill: #216e39; }
    @media (prefers-color-scheme: dark) {
      .card { fill: #0d1117; stroke: #30363d; }
      .title, .body, .metric, .ptitle { fill: #e6edf3; }
      .subtitle, .muted, .small { fill: #8b949e; }
      .panel { fill: #161b22; stroke: #30363d; }
      rect[data-level="0"] { fill: #161b22; }
      rect[data-level="1"] { fill: #0e4429; }
      rect[data-level="2"] { fill: #006d32; }
      rect[data-level="3"] { fill: #26a641; }
      rect[data-level="4"] { fill: #39d353; }
    }
  </style>
  <rect class="card" x="0.5" y="0.5" width="919" height="559" rx="12"/>
  <text x="34" y="42" class="title">939 contributions in the last year</text>
  <text x="34" y="66" class="subtitle">Private-aware static snapshot. Private repositories are counted only as aggregate activity.</text>
  <text x="95" y="92" class="muted month">Jul</text>
  <text x="147" y="92" class="muted month">Aug</text>
  <text x="212" y="92" class="muted month">Sep</text>
  <text x="264" y="92" class="muted month">Oct</text>
  <text x="316" y="92" class="muted month">Nov</text>
  <text x="381" y="92" class="muted month">Dec</text>
  <text x="433" y="92" class="muted month">Jan</text>
  <text x="498" y="92" class="muted month">Feb</text>
  <text x="550" y="92" class="muted month">Mar</text>
  <text x="602" y="92" class="muted month">Apr</text>
  <text x="654" y="92" class="muted month">May</text>
  <text x="719" y="92" class="muted month">Jun</text>
  <text x="34" y="149" class="muted">Mon</text>
  <text x="34" y="175" class="muted">Wed</text>
  <text x="34" y="201" class="muted">Fri</text>
  <rect x="82" y="112" width="11" height="11" rx="2" data-level="0"><title>2025-06-22: 0 contributions</title></rect>
  <rect x="82" y="125" width="11" height="11" rx="2" data-level="0"><title>2025-06-23: 0 contributions</title></rect>
  <rect x="82" y="138" width="11" height="11" rx="2" data-level="0"><title>2025-06-24: 0 contributions</title></rect>
  <rect x="82" y="151" width="11" height="11" rx="2" data-level="0"><title>2025-06-25: 0 contributions</title></rect>
  <rect x="82" y="164" width="11" height="11" rx="2" data-level="0"><title>2025-06-26: 0 contributions</title></rect>
  <rect x="82" y="177" width="11" height="11" rx="2" data-level="0"><title>2025-06-27: 0 contributions</title></rect>
  <rect x="82" y="190" width="11" height="11" rx="2" data-level="0"><title>2025-06-28: 0 contributions</title></rect>
  <rect x="95" y="112" width="11" height="11" rx="2" data-level="0"><title>2025-06-29: 0 contributions</title></rect>
  <rect x="95" y="125" width="11" height="11" rx="2" data-level="1"><title>2025-06-30: 1 contributions</title></rect>
  <rect x="95" y="138" width="11" height="11" rx="2" data-level="0"><title>2025-07-01: 0 contributions</title></rect>
  <rect x="95" y="151" width="11" height="11" rx="2" data-level="0"><title>2025-07-02: 0 contributions</title></rect>
  <rect x="95" y="164" width="11" height="11" rx="2" data-level="0"><title>2025-07-03: 0 contributions</title></rect>
  <rect x="95" y="177" width="11" height="11" rx="2" data-level="0"><title>2025-07-04: 0 contributions</title></rect>
  <rect x="95" y="190" width="11" height="11" rx="2" data-level="0"><title>2025-07-05: 0 contributions</title></rect>
  <rect x="108" y="112" width="11" height="11" rx="2" data-level="0"><title>2025-07-06: 0 contributions</title></rect>
  <rect x="108" y="125" width="11" height="11" rx="2" data-level="0"><title>2025-07-07: 0 contributions</title></rect>
  <rect x="108" y="138" width="11" height="11" rx="2" data-level="0"><title>2025-07-08: 0 contributions</title></rect>
  <rect x="108" y="151" width="11" height="11" rx="2" data-level="0"><title>2025-07-09: 0 contributions</title></rect>
  <rect x="108" y="164" width="11" height="11" rx="2" data-level="0"><title>2025-07-10: 0 contributions</title></rect>
  <rect x="108" y="177" width="11" height="11" rx="2" data-level="0"><title>2025-07-11: 0 contributions</title></rect>
  <rect x="108" y="190" width="11" height="11" rx="2" data-level="1"><title>2025-07-12: 2 contributions</title></rect>
  <rect x="121" y="112" width="11" height="11" rx="2" data-level="0"><title>2025-07-13: 0 contributions</title></rect>
  <rect x="121" y="125" width="11" height="11" rx="2" data-level="0"><title>2025-07-14: 0 contributions</title></rect>
  <rect x="121" y="138" width="11" height="11" rx="2" data-level="0"><title>2025-07-15: 0 contributions</title></rect>
  <rect x="121" y="151" width="11" height="11" rx="2" data-level="1"><title>2025-07-16: 3 contributions</title></rect>
  <rect x="121" y="164" width="11" height="11" rx="2" data-level="0"><title>2025-07-17: 0 contributions</title></rect>
  <rect x="121" y="177" width="11" height="11" rx="2" data-level="0"><title>2025-07-18: 0 contributions</title></rect>
  <rect x="121" y="190" width="11" height="11" rx="2" data-level="0"><title>2025-07-19: 0 contributions</title></rect>
  <rect x="134" y="112" width="11" height="11" rx="2" data-level="0"><title>2025-07-20: 0 contributions</title></rect>
  <rect x="134" y="125" width="11" height="11" rx="2" data-level="0"><title>2025-07-21: 0 contributions</title></rect>
  <rect x="134" y="138" width="11" height="11" rx="2" data-level="0"><title>2025-07-22: 0 contributions</title></rect>
  <rect x="134" y="151" width="11" height="11" rx="2" data-level="0"><title>2025-07-23: 0 contributions</title></rect>
  <rect x="134" y="164" width="11" height="11" rx="2" data-level="0"><title>2025-07-24: 0 contributions</title></rect>
  <rect x="134" y="177" width="11" height="11" rx="2" data-level="1"><title>2025-07-25: 1 contributions</title></rect>
  <rect x="134" y="190" width="11" height="11" rx="2" data-level="0"><title>2025-07-26: 0 contributions</title></rect>
  <rect x="147" y="112" width="11" height="11" rx="2" data-level="0"><title>2025-07-27: 0 contributions</title></rect>
  <rect x="147" y="125" width="11" height="11" rx="2" data-level="0"><title>2025-07-28: 0 contributions</title></rect>
  <rect x="147" y="138" width="11" height="11" rx="2" data-level="1"><title>2025-07-29: 5 contributions</title></rect>
  <rect x="147" y="151" width="11" height="11" rx="2" data-level="0"><title>2025-07-30: 0 contributions</title></rect>
  <rect x="147" y="164" width="11" height="11" rx="2" data-level="0"><title>2025-07-31: 0 contributions</title></rect>
  <rect x="147" y="177" width="11" height="11" rx="2" data-level="0"><title>2025-08-01: 0 contributions</title></rect>
  <rect x="147" y="190" width="11" height="11" rx="2" data-level="0"><title>2025-08-02: 0 contributions</title></rect>
  <rect x="160" y="112" width="11" height="11" rx="2" data-level="2"><title>2025-08-03: 21 contributions</title></rect>
  <rect x="160" y="125" width="11" height="11" rx="2" data-level="0"><title>2025-08-04: 0 contributions</title></rect>
  <rect x="160" y="138" width="11" height="11" rx="2" data-level="0"><title>2025-08-05: 0 contributions</title></rect>
  <rect x="160" y="151" width="11" height="11" rx="2" data-level="0"><title>2025-08-06: 0 contributions</title></rect>
  <rect x="160" y="164" width="11" height="11" rx="2" data-level="0"><title>2025-08-07: 0 contributions</title></rect>
  <rect x="160" y="177" width="11" height="11" rx="2" data-level="0"><title>2025-08-08: 0 contributions</title></rect>
  <rect x="160" y="190" width="11" height="11" rx="2" data-level="0"><title>2025-08-09: 0 contributions</title></rect>
  <rect x="173" y="112" width="11" height="11" rx="2" data-level="0"><title>2025-08-10: 0 contributions</title></rect>
  <rect x="173" y="125" width="11" height="11" rx="2" data-level="0"><title>2025-08-11: 0 contributions</title></rect>
  <rect x="173" y="138" width="11" height="11" rx="2" data-level="1"><title>2025-08-12: 1 contributions</title></rect>
  <rect x="173" y="151" width="11" height="11" rx="2" data-level="0"><title>2025-08-13: 0 contributions</title></rect>
  <rect x="173" y="164" width="11" height="11" rx="2" data-level="0"><title>2025-08-14: 0 contributions</title></rect>
  <rect x="173" y="177" width="11" height="11" rx="2" data-level="0"><title>2025-08-15: 0 contributions</title></rect>
  <rect x="173" y="190" width="11" height="11" rx="2" data-level="0"><title>2025-08-16: 0 contributions</title></rect>
  <rect x="186" y="112" width="11" height="11" rx="2" data-level="0"><title>2025-08-17: 0 contributions</title></rect>
  <rect x="186" y="125" width="11" height="11" rx="2" data-level="2"><title>2025-08-18: 18 contributions</title></rect>
  <rect x="186" y="138" width="11" height="11" rx="2" data-level="0"><title>2025-08-19: 0 contributions</title></rect>
  <rect x="186" y="151" width="11" height="11" rx="2" data-level="0"><title>2025-08-20: 0 contributions</title></rect>
  <rect x="186" y="164" width="11" height="11" rx="2" data-level="0"><title>2025-08-21: 0 contributions</title></rect>
  <rect x="186" y="177" width="11" height="11" rx="2" data-level="0"><title>2025-08-22: 0 contributions</title></rect>
  <rect x="186" y="190" width="11" height="11" rx="2" data-level="0"><title>2025-08-23: 0 contributions</title></rect>
  <rect x="199" y="112" width="11" height="11" rx="2" data-level="0"><title>2025-08-24: 0 contributions</title></rect>
  <rect x="199" y="125" width="11" height="11" rx="2" data-level="0"><title>2025-08-25: 0 contributions</title></rect>
  <rect x="199" y="138" width="11" height="11" rx="2" data-level="0"><title>2025-08-26: 0 contributions</title></rect>
  <rect x="199" y="151" width="11" height="11" rx="2" data-level="0"><title>2025-08-27: 0 contributions</title></rect>
  <rect x="199" y="164" width="11" height="11" rx="2" data-level="1"><title>2025-08-28: 5 contributions</title></rect>
  <rect x="199" y="177" width="11" height="11" rx="2" data-level="1"><title>2025-08-29: 3 contributions</title></rect>
  <rect x="199" y="190" width="11" height="11" rx="2" data-level="0"><title>2025-08-30: 0 contributions</title></rect>
  <rect x="212" y="112" width="11" height="11" rx="2" data-level="0"><title>2025-08-31: 0 contributions</title></rect>
  <rect x="212" y="125" width="11" height="11" rx="2" data-level="1"><title>2025-09-01: 4 contributions</title></rect>
  <rect x="212" y="138" width="11" height="11" rx="2" data-level="0"><title>2025-09-02: 0 contributions</title></rect>
  <rect x="212" y="151" width="11" height="11" rx="2" data-level="0"><title>2025-09-03: 0 contributions</title></rect>
  <rect x="212" y="164" width="11" height="11" rx="2" data-level="0"><title>2025-09-04: 0 contributions</title></rect>
  <rect x="212" y="177" width="11" height="11" rx="2" data-level="0"><title>2025-09-05: 0 contributions</title></rect>
  <rect x="212" y="190" width="11" height="11" rx="2" data-level="0"><title>2025-09-06: 0 contributions</title></rect>
  <rect x="225" y="112" width="11" height="11" rx="2" data-level="0"><title>2025-09-07: 0 contributions</title></rect>
  <rect x="225" y="125" width="11" height="11" rx="2" data-level="0"><title>2025-09-08: 0 contributions</title></rect>
  <rect x="225" y="138" width="11" height="11" rx="2" data-level="0"><title>2025-09-09: 0 contributions</title></rect>
  <rect x="225" y="151" width="11" height="11" rx="2" data-level="2"><title>2025-09-10: 10 contributions</title></rect>
  <rect x="225" y="164" width="11" height="11" rx="2" data-level="0"><title>2025-09-11: 0 contributions</title></rect>
  <rect x="225" y="177" width="11" height="11" rx="2" data-level="0"><title>2025-09-12: 0 contributions</title></rect>
  <rect x="225" y="190" width="11" height="11" rx="2" data-level="0"><title>2025-09-13: 0 contributions</title></rect>
  <rect x="238" y="112" width="11" height="11" rx="2" data-level="0"><title>2025-09-14: 0 contributions</title></rect>
  <rect x="238" y="125" width="11" height="11" rx="2" data-level="0"><title>2025-09-15: 0 contributions</title></rect>
  <rect x="238" y="138" width="11" height="11" rx="2" data-level="0"><title>2025-09-16: 0 contributions</title></rect>
  <rect x="238" y="151" width="11" height="11" rx="2" data-level="0"><title>2025-09-17: 0 contributions</title></rect>
  <rect x="238" y="164" width="11" height="11" rx="2" data-level="0"><title>2025-09-18: 0 contributions</title></rect>
  <rect x="238" y="177" width="11" height="11" rx="2" data-level="0"><title>2025-09-19: 0 contributions</title></rect>
  <rect x="238" y="190" width="11" height="11" rx="2" data-level="2"><title>2025-09-20: 16 contributions</title></rect>
  <rect x="251" y="112" width="11" height="11" rx="2" data-level="0"><title>2025-09-21: 0 contributions</title></rect>
  <rect x="251" y="125" width="11" height="11" rx="2" data-level="0"><title>2025-09-22: 0 contributions</title></rect>
  <rect x="251" y="138" width="11" height="11" rx="2" data-level="1"><title>2025-09-23: 1 contributions</title></rect>
  <rect x="251" y="151" width="11" height="11" rx="2" data-level="0"><title>2025-09-24: 0 contributions</title></rect>
  <rect x="251" y="164" width="11" height="11" rx="2" data-level="0"><title>2025-09-25: 0 contributions</title></rect>
  <rect x="251" y="177" width="11" height="11" rx="2" data-level="0"><title>2025-09-26: 0 contributions</title></rect>
  <rect x="251" y="190" width="11" height="11" rx="2" data-level="0"><title>2025-09-27: 0 contributions</title></rect>
  <rect x="264" y="112" width="11" height="11" rx="2" data-level="0"><title>2025-09-28: 0 contributions</title></rect>
  <rect x="264" y="125" width="11" height="11" rx="2" data-level="0"><title>2025-09-29: 0 contributions</title></rect>
  <rect x="264" y="138" width="11" height="11" rx="2" data-level="0"><title>2025-09-30: 0 contributions</title></rect>
  <rect x="264" y="151" width="11" height="11" rx="2" data-level="1"><title>2025-10-01: 3 contributions</title></rect>
  <rect x="264" y="164" width="11" height="11" rx="2" data-level="2"><title>2025-10-02: 20 contributions</title></rect>
  <rect x="264" y="177" width="11" height="11" rx="2" data-level="0"><title>2025-10-03: 0 contributions</title></rect>
  <rect x="264" y="190" width="11" height="11" rx="2" data-level="1"><title>2025-10-04: 3 contributions</title></rect>
  <rect x="277" y="112" width="11" height="11" rx="2" data-level="1"><title>2025-10-05: 5 contributions</title></rect>
  <rect x="277" y="125" width="11" height="11" rx="2" data-level="0"><title>2025-10-06: 0 contributions</title></rect>
  <rect x="277" y="138" width="11" height="11" rx="2" data-level="0"><title>2025-10-07: 0 contributions</title></rect>
  <rect x="277" y="151" width="11" height="11" rx="2" data-level="0"><title>2025-10-08: 0 contributions</title></rect>
  <rect x="277" y="164" width="11" height="11" rx="2" data-level="0"><title>2025-10-09: 0 contributions</title></rect>
  <rect x="277" y="177" width="11" height="11" rx="2" data-level="0"><title>2025-10-10: 0 contributions</title></rect>
  <rect x="277" y="190" width="11" height="11" rx="2" data-level="0"><title>2025-10-11: 0 contributions</title></rect>
  <rect x="290" y="112" width="11" height="11" rx="2" data-level="0"><title>2025-10-12: 0 contributions</title></rect>
  <rect x="290" y="125" width="11" height="11" rx="2" data-level="0"><title>2025-10-13: 0 contributions</title></rect>
  <rect x="290" y="138" width="11" height="11" rx="2" data-level="0"><title>2025-10-14: 0 contributions</title></rect>
  <rect x="290" y="151" width="11" height="11" rx="2" data-level="1"><title>2025-10-15: 3 contributions</title></rect>
  <rect x="290" y="164" width="11" height="11" rx="2" data-level="0"><title>2025-10-16: 0 contributions</title></rect>
  <rect x="290" y="177" width="11" height="11" rx="2" data-level="0"><title>2025-10-17: 0 contributions</title></rect>
  <rect x="290" y="190" width="11" height="11" rx="2" data-level="0"><title>2025-10-18: 0 contributions</title></rect>
  <rect x="303" y="112" width="11" height="11" rx="2" data-level="0"><title>2025-10-19: 0 contributions</title></rect>
  <rect x="303" y="125" width="11" height="11" rx="2" data-level="0"><title>2025-10-20: 0 contributions</title></rect>
  <rect x="303" y="138" width="11" height="11" rx="2" data-level="0"><title>2025-10-21: 0 contributions</title></rect>
  <rect x="303" y="151" width="11" height="11" rx="2" data-level="2"><title>2025-10-22: 16 contributions</title></rect>
  <rect x="303" y="164" width="11" height="11" rx="2" data-level="0"><title>2025-10-23: 0 contributions</title></rect>
  <rect x="303" y="177" width="11" height="11" rx="2" data-level="0"><title>2025-10-24: 0 contributions</title></rect>
  <rect x="303" y="190" width="11" height="11" rx="2" data-level="0"><title>2025-10-25: 0 contributions</title></rect>
  <rect x="316" y="112" width="11" height="11" rx="2" data-level="0"><title>2025-10-26: 0 contributions</title></rect>
  <rect x="316" y="125" width="11" height="11" rx="2" data-level="0"><title>2025-10-27: 0 contributions</title></rect>
  <rect x="316" y="138" width="11" height="11" rx="2" data-level="1"><title>2025-10-28: 4 contributions</title></rect>
  <rect x="316" y="151" width="11" height="11" rx="2" data-level="1"><title>2025-10-29: 5 contributions</title></rect>
  <rect x="316" y="164" width="11" height="11" rx="2" data-level="0"><title>2025-10-30: 0 contributions</title></rect>
  <rect x="316" y="177" width="11" height="11" rx="2" data-level="0"><title>2025-10-31: 0 contributions</title></rect>
  <rect x="316" y="190" width="11" height="11" rx="2" data-level="0"><title>2025-11-01: 0 contributions</title></rect>
  <rect x="329" y="112" width="11" height="11" rx="2" data-level="0"><title>2025-11-02: 0 contributions</title></rect>
  <rect x="329" y="125" width="11" height="11" rx="2" data-level="0"><title>2025-11-03: 0 contributions</title></rect>
  <rect x="329" y="138" width="11" height="11" rx="2" data-level="0"><title>2025-11-04: 0 contributions</title></rect>
  <rect x="329" y="151" width="11" height="11" rx="2" data-level="1"><title>2025-11-05: 4 contributions</title></rect>
  <rect x="329" y="164" width="11" height="11" rx="2" data-level="0"><title>2025-11-06: 0 contributions</title></rect>
  <rect x="329" y="177" width="11" height="11" rx="2" data-level="0"><title>2025-11-07: 0 contributions</title></rect>
  <rect x="329" y="190" width="11" height="11" rx="2" data-level="0"><title>2025-11-08: 0 contributions</title></rect>
  <rect x="342" y="112" width="11" height="11" rx="2" data-level="0"><title>2025-11-09: 0 contributions</title></rect>
  <rect x="342" y="125" width="11" height="11" rx="2" data-level="0"><title>2025-11-10: 0 contributions</title></rect>
  <rect x="342" y="138" width="11" height="11" rx="2" data-level="0"><title>2025-11-11: 0 contributions</title></rect>
  <rect x="342" y="151" width="11" height="11" rx="2" data-level="0"><title>2025-11-12: 0 contributions</title></rect>
  <rect x="342" y="164" width="11" height="11" rx="2" data-level="0"><title>2025-11-13: 0 contributions</title></rect>
  <rect x="342" y="177" width="11" height="11" rx="2" data-level="0"><title>2025-11-14: 0 contributions</title></rect>
  <rect x="342" y="190" width="11" height="11" rx="2" data-level="1"><title>2025-11-15: 3 contributions</title></rect>
  <rect x="355" y="112" width="11" height="11" rx="2" data-level="0"><title>2025-11-16: 0 contributions</title></rect>
  <rect x="355" y="125" width="11" height="11" rx="2" data-level="0"><title>2025-11-17: 0 contributions</title></rect>
  <rect x="355" y="138" width="11" height="11" rx="2" data-level="0"><title>2025-11-18: 0 contributions</title></rect>
  <rect x="355" y="151" width="11" height="11" rx="2" data-level="0"><title>2025-11-19: 0 contributions</title></rect>
  <rect x="355" y="164" width="11" height="11" rx="2" data-level="0"><title>2025-11-20: 0 contributions</title></rect>
  <rect x="355" y="177" width="11" height="11" rx="2" data-level="1"><title>2025-11-21: 5 contributions</title></rect>
  <rect x="355" y="190" width="11" height="11" rx="2" data-level="0"><title>2025-11-22: 0 contributions</title></rect>
  <rect x="368" y="112" width="11" height="11" rx="2" data-level="0"><title>2025-11-23: 0 contributions</title></rect>
  <rect x="368" y="125" width="11" height="11" rx="2" data-level="0"><title>2025-11-24: 0 contributions</title></rect>
  <rect x="368" y="138" width="11" height="11" rx="2" data-level="0"><title>2025-11-25: 0 contributions</title></rect>
  <rect x="368" y="151" width="11" height="11" rx="2" data-level="0"><title>2025-11-26: 0 contributions</title></rect>
  <rect x="368" y="164" width="11" height="11" rx="2" data-level="0"><title>2025-11-27: 0 contributions</title></rect>
  <rect x="368" y="177" width="11" height="11" rx="2" data-level="0"><title>2025-11-28: 0 contributions</title></rect>
  <rect x="368" y="190" width="11" height="11" rx="2" data-level="0"><title>2025-11-29: 0 contributions</title></rect>
  <rect x="381" y="112" width="11" height="11" rx="2" data-level="1"><title>2025-11-30: 1 contributions</title></rect>
  <rect x="381" y="125" width="11" height="11" rx="2" data-level="0"><title>2025-12-01: 0 contributions</title></rect>
  <rect x="381" y="138" width="11" height="11" rx="2" data-level="1"><title>2025-12-02: 9 contributions</title></rect>
  <rect x="381" y="151" width="11" height="11" rx="2" data-level="0"><title>2025-12-03: 0 contributions</title></rect>
  <rect x="381" y="164" width="11" height="11" rx="2" data-level="0"><title>2025-12-04: 0 contributions</title></rect>
  <rect x="381" y="177" width="11" height="11" rx="2" data-level="0"><title>2025-12-05: 0 contributions</title></rect>
  <rect x="381" y="190" width="11" height="11" rx="2" data-level="0"><title>2025-12-06: 0 contributions</title></rect>
  <rect x="394" y="112" width="11" height="11" rx="2" data-level="0"><title>2025-12-07: 0 contributions</title></rect>
  <rect x="394" y="125" width="11" height="11" rx="2" data-level="0"><title>2025-12-08: 0 contributions</title></rect>
  <rect x="394" y="138" width="11" height="11" rx="2" data-level="0"><title>2025-12-09: 0 contributions</title></rect>
  <rect x="394" y="151" width="11" height="11" rx="2" data-level="0"><title>2025-12-10: 0 contributions</title></rect>
  <rect x="394" y="164" width="11" height="11" rx="2" data-level="0"><title>2025-12-11: 0 contributions</title></rect>
  <rect x="394" y="177" width="11" height="11" rx="2" data-level="1"><title>2025-12-12: 1 contributions</title></rect>
  <rect x="394" y="190" width="11" height="11" rx="2" data-level="0"><title>2025-12-13: 0 contributions</title></rect>
  <rect x="407" y="112" width="11" height="11" rx="2" data-level="1"><title>2025-12-14: 5 contributions</title></rect>
  <rect x="407" y="125" width="11" height="11" rx="2" data-level="0"><title>2025-12-15: 0 contributions</title></rect>
  <rect x="407" y="138" width="11" height="11" rx="2" data-level="0"><title>2025-12-16: 0 contributions</title></rect>
  <rect x="407" y="151" width="11" height="11" rx="2" data-level="0"><title>2025-12-17: 0 contributions</title></rect>
  <rect x="407" y="164" width="11" height="11" rx="2" data-level="0"><title>2025-12-18: 0 contributions</title></rect>
  <rect x="407" y="177" width="11" height="11" rx="2" data-level="0"><title>2025-12-19: 0 contributions</title></rect>
  <rect x="407" y="190" width="11" height="11" rx="2" data-level="1"><title>2025-12-20: 8 contributions</title></rect>
  <rect x="420" y="112" width="11" height="11" rx="2" data-level="1"><title>2025-12-21: 6 contributions</title></rect>
  <rect x="420" y="125" width="11" height="11" rx="2" data-level="3"><title>2025-12-22: 30 contributions</title></rect>
  <rect x="420" y="138" width="11" height="11" rx="2" data-level="3"><title>2025-12-23: 40 contributions</title></rect>
  <rect x="420" y="151" width="11" height="11" rx="2" data-level="3"><title>2025-12-24: 40 contributions</title></rect>
  <rect x="420" y="164" width="11" height="11" rx="2" data-level="1"><title>2025-12-25: 8 contributions</title></rect>
  <rect x="420" y="177" width="11" height="11" rx="2" data-level="3"><title>2025-12-26: 30 contributions</title></rect>
  <rect x="420" y="190" width="11" height="11" rx="2" data-level="0"><title>2025-12-27: 0 contributions</title></rect>
  <rect x="433" y="112" width="11" height="11" rx="2" data-level="1"><title>2025-12-28: 6 contributions</title></rect>
  <rect x="433" y="125" width="11" height="11" rx="2" data-level="3"><title>2025-12-29: 30 contributions</title></rect>
  <rect x="433" y="138" width="11" height="11" rx="2" data-level="0"><title>2025-12-30: 0 contributions</title></rect>
  <rect x="433" y="151" width="11" height="11" rx="2" data-level="3"><title>2025-12-31: 30 contributions</title></rect>
  <rect x="433" y="164" width="11" height="11" rx="2" data-level="2"><title>2026-01-01: 11 contributions</title></rect>
  <rect x="433" y="177" width="11" height="11" rx="2" data-level="3"><title>2026-01-02: 40 contributions</title></rect>
  <rect x="433" y="190" width="11" height="11" rx="2" data-level="2"><title>2026-01-03: 11 contributions</title></rect>
  <rect x="446" y="112" width="11" height="11" rx="2" data-level="3"><title>2026-01-04: 30 contributions</title></rect>
  <rect x="446" y="125" width="11" height="11" rx="2" data-level="4"><title>2026-01-05: 56 contributions</title></rect>
  <rect x="446" y="138" width="11" height="11" rx="2" data-level="4"><title>2026-01-06: 79 contributions</title></rect>
  <rect x="446" y="151" width="11" height="11" rx="2" data-level="3"><title>2026-01-07: 40 contributions</title></rect>
  <rect x="446" y="164" width="11" height="11" rx="2" data-level="1"><title>2026-01-08: 6 contributions</title></rect>
  <rect x="446" y="177" width="11" height="11" rx="2" data-level="1"><title>2026-01-09: 8 contributions</title></rect>
  <rect x="446" y="190" width="11" height="11" rx="2" data-level="2"><title>2026-01-10: 11 contributions</title></rect>
  <rect x="459" y="112" width="11" height="11" rx="2" data-level="1"><title>2026-01-11: 8 contributions</title></rect>
  <rect x="459" y="125" width="11" height="11" rx="2" data-level="0"><title>2026-01-12: 0 contributions</title></rect>
  <rect x="459" y="138" width="11" height="11" rx="2" data-level="4"><title>2026-01-13: 65 contributions</title></rect>
  <rect x="459" y="151" width="11" height="11" rx="2" data-level="4"><title>2026-01-14: 56 contributions</title></rect>
  <rect x="459" y="164" width="11" height="11" rx="2" data-level="0"><title>2026-01-15: 0 contributions</title></rect>
  <rect x="459" y="177" width="11" height="11" rx="2" data-level="0"><title>2026-01-16: 0 contributions</title></rect>
  <rect x="459" y="190" width="11" height="11" rx="2" data-level="0"><title>2026-01-17: 0 contributions</title></rect>
  <rect x="472" y="112" width="11" height="11" rx="2" data-level="0"><title>2026-01-18: 0 contributions</title></rect>
  <rect x="472" y="125" width="11" height="11" rx="2" data-level="1"><title>2026-01-19: 5 contributions</title></rect>
  <rect x="472" y="138" width="11" height="11" rx="2" data-level="0"><title>2026-01-20: 0 contributions</title></rect>
  <rect x="472" y="151" width="11" height="11" rx="2" data-level="1"><title>2026-01-21: 1 contributions</title></rect>
  <rect x="472" y="164" width="11" height="11" rx="2" data-level="1"><title>2026-01-22: 1 contributions</title></rect>
  <rect x="472" y="177" width="11" height="11" rx="2" data-level="0"><title>2026-01-23: 0 contributions</title></rect>
  <rect x="472" y="190" width="11" height="11" rx="2" data-level="0"><title>2026-01-24: 0 contributions</title></rect>
  <rect x="485" y="112" width="11" height="11" rx="2" data-level="0"><title>2026-01-25: 0 contributions</title></rect>
  <rect x="485" y="125" width="11" height="11" rx="2" data-level="0"><title>2026-01-26: 0 contributions</title></rect>
  <rect x="485" y="138" width="11" height="11" rx="2" data-level="1"><title>2026-01-27: 2 contributions</title></rect>
  <rect x="485" y="151" width="11" height="11" rx="2" data-level="0"><title>2026-01-28: 0 contributions</title></rect>
  <rect x="485" y="164" width="11" height="11" rx="2" data-level="0"><title>2026-01-29: 0 contributions</title></rect>
  <rect x="485" y="177" width="11" height="11" rx="2" data-level="0"><title>2026-01-30: 0 contributions</title></rect>
  <rect x="485" y="190" width="11" height="11" rx="2" data-level="0"><title>2026-01-31: 0 contributions</title></rect>
  <rect x="498" y="112" width="11" height="11" rx="2" data-level="0"><title>2026-02-01: 0 contributions</title></rect>
  <rect x="498" y="125" width="11" height="11" rx="2" data-level="0"><title>2026-02-02: 0 contributions</title></rect>
  <rect x="498" y="138" width="11" height="11" rx="2" data-level="0"><title>2026-02-03: 0 contributions</title></rect>
  <rect x="498" y="151" width="11" height="11" rx="2" data-level="0"><title>2026-02-04: 0 contributions</title></rect>
  <rect x="498" y="164" width="11" height="11" rx="2" data-level="0"><title>2026-02-05: 0 contributions</title></rect>
  <rect x="498" y="177" width="11" height="11" rx="2" data-level="0"><title>2026-02-06: 0 contributions</title></rect>
  <rect x="498" y="190" width="11" height="11" rx="2" data-level="0"><title>2026-02-07: 0 contributions</title></rect>
  <rect x="511" y="112" width="11" height="11" rx="2" data-level="0"><title>2026-02-08: 0 contributions</title></rect>
  <rect x="511" y="125" width="11" height="11" rx="2" data-level="0"><title>2026-02-09: 0 contributions</title></rect>
  <rect x="511" y="138" width="11" height="11" rx="2" data-level="1"><title>2026-02-10: 1 contributions</title></rect>
  <rect x="511" y="151" width="11" height="11" rx="2" data-level="0"><title>2026-02-11: 0 contributions</title></rect>
  <rect x="511" y="164" width="11" height="11" rx="2" data-level="0"><title>2026-02-12: 0 contributions</title></rect>
  <rect x="511" y="177" width="11" height="11" rx="2" data-level="0"><title>2026-02-13: 0 contributions</title></rect>
  <rect x="511" y="190" width="11" height="11" rx="2" data-level="0"><title>2026-02-14: 0 contributions</title></rect>
  <rect x="524" y="112" width="11" height="11" rx="2" data-level="0"><title>2026-02-15: 0 contributions</title></rect>
  <rect x="524" y="125" width="11" height="11" rx="2" data-level="0"><title>2026-02-16: 0 contributions</title></rect>
  <rect x="524" y="138" width="11" height="11" rx="2" data-level="0"><title>2026-02-17: 0 contributions</title></rect>
  <rect x="524" y="151" width="11" height="11" rx="2" data-level="0"><title>2026-02-18: 0 contributions</title></rect>
  <rect x="524" y="164" width="11" height="11" rx="2" data-level="0"><title>2026-02-19: 0 contributions</title></rect>
  <rect x="524" y="177" width="11" height="11" rx="2" data-level="0"><title>2026-02-20: 0 contributions</title></rect>
  <rect x="524" y="190" width="11" height="11" rx="2" data-level="0"><title>2026-02-21: 0 contributions</title></rect>
  <rect x="537" y="112" width="11" height="11" rx="2" data-level="0"><title>2026-02-22: 0 contributions</title></rect>
  <rect x="537" y="125" width="11" height="11" rx="2" data-level="0"><title>2026-02-23: 0 contributions</title></rect>
  <rect x="537" y="138" width="11" height="11" rx="2" data-level="0"><title>2026-02-24: 0 contributions</title></rect>
  <rect x="537" y="151" width="11" height="11" rx="2" data-level="2"><title>2026-02-25: 20 contributions</title></rect>
  <rect x="537" y="164" width="11" height="11" rx="2" data-level="0"><title>2026-02-26: 0 contributions</title></rect>
  <rect x="537" y="177" width="11" height="11" rx="2" data-level="0"><title>2026-02-27: 0 contributions</title></rect>
  <rect x="537" y="190" width="11" height="11" rx="2" data-level="0"><title>2026-02-28: 0 contributions</title></rect>
  <rect x="550" y="112" width="11" height="11" rx="2" data-level="0"><title>2026-03-01: 0 contributions</title></rect>
  <rect x="550" y="125" width="11" height="11" rx="2" data-level="0"><title>2026-03-02: 0 contributions</title></rect>
  <rect x="550" y="138" width="11" height="11" rx="2" data-level="1"><title>2026-03-03: 2 contributions</title></rect>
  <rect x="550" y="151" width="11" height="11" rx="2" data-level="0"><title>2026-03-04: 0 contributions</title></rect>
  <rect x="550" y="164" width="11" height="11" rx="2" data-level="1"><title>2026-03-05: 5 contributions</title></rect>
  <rect x="550" y="177" width="11" height="11" rx="2" data-level="0"><title>2026-03-06: 0 contributions</title></rect>
  <rect x="550" y="190" width="11" height="11" rx="2" data-level="0"><title>2026-03-07: 0 contributions</title></rect>
  <rect x="563" y="112" width="11" height="11" rx="2" data-level="0"><title>2026-03-08: 0 contributions</title></rect>
  <rect x="563" y="125" width="11" height="11" rx="2" data-level="0"><title>2026-03-09: 0 contributions</title></rect>
  <rect x="563" y="138" width="11" height="11" rx="2" data-level="0"><title>2026-03-10: 0 contributions</title></rect>
  <rect x="563" y="151" width="11" height="11" rx="2" data-level="1"><title>2026-03-11: 5 contributions</title></rect>
  <rect x="563" y="164" width="11" height="11" rx="2" data-level="0"><title>2026-03-12: 0 contributions</title></rect>
  <rect x="563" y="177" width="11" height="11" rx="2" data-level="1"><title>2026-03-13: 1 contributions</title></rect>
  <rect x="563" y="190" width="11" height="11" rx="2" data-level="0"><title>2026-03-14: 0 contributions</title></rect>
  <rect x="576" y="112" width="11" height="11" rx="2" data-level="0"><title>2026-03-15: 0 contributions</title></rect>
  <rect x="576" y="125" width="11" height="11" rx="2" data-level="0"><title>2026-03-16: 0 contributions</title></rect>
  <rect x="576" y="138" width="11" height="11" rx="2" data-level="0"><title>2026-03-17: 0 contributions</title></rect>
  <rect x="576" y="151" width="11" height="11" rx="2" data-level="0"><title>2026-03-18: 0 contributions</title></rect>
  <rect x="576" y="164" width="11" height="11" rx="2" data-level="0"><title>2026-03-19: 0 contributions</title></rect>
  <rect x="576" y="177" width="11" height="11" rx="2" data-level="0"><title>2026-03-20: 0 contributions</title></rect>
  <rect x="576" y="190" width="11" height="11" rx="2" data-level="0"><title>2026-03-21: 0 contributions</title></rect>
  <rect x="589" y="112" width="11" height="11" rx="2" data-level="0"><title>2026-03-22: 0 contributions</title></rect>
  <rect x="589" y="125" width="11" height="11" rx="2" data-level="0"><title>2026-03-23: 0 contributions</title></rect>
  <rect x="589" y="138" width="11" height="11" rx="2" data-level="0"><title>2026-03-24: 0 contributions</title></rect>
  <rect x="589" y="151" width="11" height="11" rx="2" data-level="0"><title>2026-03-25: 0 contributions</title></rect>
  <rect x="589" y="164" width="11" height="11" rx="2" data-level="1"><title>2026-03-26: 2 contributions</title></rect>
  <rect x="589" y="177" width="11" height="11" rx="2" data-level="0"><title>2026-03-27: 0 contributions</title></rect>
  <rect x="589" y="190" width="11" height="11" rx="2" data-level="0"><title>2026-03-28: 0 contributions</title></rect>
  <rect x="602" y="112" width="11" height="11" rx="2" data-level="0"><title>2026-03-29: 0 contributions</title></rect>
  <rect x="602" y="125" width="11" height="11" rx="2" data-level="0"><title>2026-03-30: 0 contributions</title></rect>
  <rect x="602" y="138" width="11" height="11" rx="2" data-level="0"><title>2026-03-31: 0 contributions</title></rect>
  <rect x="602" y="151" width="11" height="11" rx="2" data-level="0"><title>2026-04-01: 0 contributions</title></rect>
  <rect x="602" y="164" width="11" height="11" rx="2" data-level="1"><title>2026-04-02: 1 contributions</title></rect>
  <rect x="602" y="177" width="11" height="11" rx="2" data-level="1"><title>2026-04-03: 2 contributions</title></rect>
  <rect x="602" y="190" width="11" height="11" rx="2" data-level="0"><title>2026-04-04: 0 contributions</title></rect>
  <rect x="615" y="112" width="11" height="11" rx="2" data-level="0"><title>2026-04-05: 0 contributions</title></rect>
  <rect x="615" y="125" width="11" height="11" rx="2" data-level="0"><title>2026-04-06: 0 contributions</title></rect>
  <rect x="615" y="138" width="11" height="11" rx="2" data-level="0"><title>2026-04-07: 0 contributions</title></rect>
  <rect x="615" y="151" width="11" height="11" rx="2" data-level="1"><title>2026-04-08: 5 contributions</title></rect>
  <rect x="615" y="164" width="11" height="11" rx="2" data-level="0"><title>2026-04-09: 0 contributions</title></rect>
  <rect x="615" y="177" width="11" height="11" rx="2" data-level="1"><title>2026-04-10: 2 contributions</title></rect>
  <rect x="615" y="190" width="11" height="11" rx="2" data-level="1"><title>2026-04-11: 2 contributions</title></rect>
  <rect x="628" y="112" width="11" height="11" rx="2" data-level="1"><title>2026-04-12: 1 contributions</title></rect>
  <rect x="628" y="125" width="11" height="11" rx="2" data-level="0"><title>2026-04-13: 0 contributions</title></rect>
  <rect x="628" y="138" width="11" height="11" rx="2" data-level="1"><title>2026-04-14: 4 contributions</title></rect>
  <rect x="628" y="151" width="11" height="11" rx="2" data-level="0"><title>2026-04-15: 0 contributions</title></rect>
  <rect x="628" y="164" width="11" height="11" rx="2" data-level="1"><title>2026-04-16: 2 contributions</title></rect>
  <rect x="628" y="177" width="11" height="11" rx="2" data-level="0"><title>2026-04-17: 0 contributions</title></rect>
  <rect x="628" y="190" width="11" height="11" rx="2" data-level="0"><title>2026-04-18: 0 contributions</title></rect>
  <rect x="641" y="112" width="11" height="11" rx="2" data-level="0"><title>2026-04-19: 0 contributions</title></rect>
  <rect x="641" y="125" width="11" height="11" rx="2" data-level="1"><title>2026-04-20: 4 contributions</title></rect>
  <rect x="641" y="138" width="11" height="11" rx="2" data-level="0"><title>2026-04-21: 0 contributions</title></rect>
  <rect x="641" y="151" width="11" height="11" rx="2" data-level="0"><title>2026-04-22: 0 contributions</title></rect>
  <rect x="641" y="164" width="11" height="11" rx="2" data-level="0"><title>2026-04-23: 0 contributions</title></rect>
  <rect x="641" y="177" width="11" height="11" rx="2" data-level="0"><title>2026-04-24: 0 contributions</title></rect>
  <rect x="641" y="190" width="11" height="11" rx="2" data-level="0"><title>2026-04-25: 0 contributions</title></rect>
  <rect x="654" y="112" width="11" height="11" rx="2" data-level="0"><title>2026-04-26: 0 contributions</title></rect>
  <rect x="654" y="125" width="11" height="11" rx="2" data-level="0"><title>2026-04-27: 0 contributions</title></rect>
  <rect x="654" y="138" width="11" height="11" rx="2" data-level="0"><title>2026-04-28: 0 contributions</title></rect>
  <rect x="654" y="151" width="11" height="11" rx="2" data-level="0"><title>2026-04-29: 0 contributions</title></rect>
  <rect x="654" y="164" width="11" height="11" rx="2" data-level="1"><title>2026-04-30: 3 contributions</title></rect>
  <rect x="654" y="177" width="11" height="11" rx="2" data-level="0"><title>2026-05-01: 0 contributions</title></rect>
  <rect x="654" y="190" width="11" height="11" rx="2" data-level="0"><title>2026-05-02: 0 contributions</title></rect>
  <rect x="667" y="112" width="11" height="11" rx="2" data-level="0"><title>2026-05-03: 0 contributions</title></rect>
  <rect x="667" y="125" width="11" height="11" rx="2" data-level="1"><title>2026-05-04: 3 contributions</title></rect>
  <rect x="667" y="138" width="11" height="11" rx="2" data-level="1"><title>2026-05-05: 1 contributions</title></rect>
  <rect x="667" y="151" width="11" height="11" rx="2" data-level="1"><title>2026-05-06: 3 contributions</title></rect>
  <rect x="667" y="164" width="11" height="11" rx="2" data-level="0"><title>2026-05-07: 0 contributions</title></rect>
  <rect x="667" y="177" width="11" height="11" rx="2" data-level="1"><title>2026-05-08: 3 contributions</title></rect>
  <rect x="667" y="190" width="11" height="11" rx="2" data-level="0"><title>2026-05-09: 0 contributions</title></rect>
  <rect x="680" y="112" width="11" height="11" rx="2" data-level="0"><title>2026-05-10: 0 contributions</title></rect>
  <rect x="680" y="125" width="11" height="11" rx="2" data-level="0"><title>2026-05-11: 0 contributions</title></rect>
  <rect x="680" y="138" width="11" height="11" rx="2" data-level="0"><title>2026-05-12: 0 contributions</title></rect>
  <rect x="680" y="151" width="11" height="11" rx="2" data-level="0"><title>2026-05-13: 0 contributions</title></rect>
  <rect x="680" y="164" width="11" height="11" rx="2" data-level="1"><title>2026-05-14: 9 contributions</title></rect>
  <rect x="680" y="177" width="11" height="11" rx="2" data-level="0"><title>2026-05-15: 0 contributions</title></rect>
  <rect x="680" y="190" width="11" height="11" rx="2" data-level="0"><title>2026-05-16: 0 contributions</title></rect>
  <rect x="693" y="112" width="11" height="11" rx="2" data-level="0"><title>2026-05-17: 0 contributions</title></rect>
  <rect x="693" y="125" width="11" height="11" rx="2" data-level="0"><title>2026-05-18: 0 contributions</title></rect>
  <rect x="693" y="138" width="11" height="11" rx="2" data-level="0"><title>2026-05-19: 0 contributions</title></rect>
  <rect x="693" y="151" width="11" height="11" rx="2" data-level="1"><title>2026-05-20: 5 contributions</title></rect>
  <rect x="693" y="164" width="11" height="11" rx="2" data-level="0"><title>2026-05-21: 0 contributions</title></rect>
  <rect x="693" y="177" width="11" height="11" rx="2" data-level="1"><title>2026-05-22: 2 contributions</title></rect>
  <rect x="693" y="190" width="11" height="11" rx="2" data-level="0"><title>2026-05-23: 0 contributions</title></rect>
  <rect x="706" y="112" width="11" height="11" rx="2" data-level="0"><title>2026-05-24: 0 contributions</title></rect>
  <rect x="706" y="125" width="11" height="11" rx="2" data-level="0"><title>2026-05-25: 0 contributions</title></rect>
  <rect x="706" y="138" width="11" height="11" rx="2" data-level="0"><title>2026-05-26: 0 contributions</title></rect>
  <rect x="706" y="151" width="11" height="11" rx="2" data-level="0"><title>2026-05-27: 0 contributions</title></rect>
  <rect x="706" y="164" width="11" height="11" rx="2" data-level="1"><title>2026-05-28: 3 contributions</title></rect>
  <rect x="706" y="177" width="11" height="11" rx="2" data-level="0"><title>2026-05-29: 0 contributions</title></rect>
  <rect x="706" y="190" width="11" height="11" rx="2" data-level="0"><title>2026-05-30: 0 contributions</title></rect>
  <rect x="719" y="112" width="11" height="11" rx="2" data-level="0"><title>2026-05-31: 0 contributions</title></rect>
  <rect x="719" y="125" width="11" height="11" rx="2" data-level="0"><title>2026-06-01: 0 contributions</title></rect>
  <rect x="719" y="138" width="11" height="11" rx="2" data-level="0"><title>2026-06-02: 0 contributions</title></rect>
  <rect x="719" y="151" width="11" height="11" rx="2" data-level="0"><title>2026-06-03: 0 contributions</title></rect>
  <rect x="719" y="164" width="11" height="11" rx="2" data-level="0"><title>2026-06-04: 0 contributions</title></rect>
  <rect x="719" y="177" width="11" height="11" rx="2" data-level="0"><title>2026-06-05: 0 contributions</title></rect>
  <rect x="719" y="190" width="11" height="11" rx="2" data-level="0"><title>2026-06-06: 0 contributions</title></rect>
  <rect x="732" y="112" width="11" height="11" rx="2" data-level="0"><title>2026-06-07: 0 contributions</title></rect>
  <rect x="732" y="125" width="11" height="11" rx="2" data-level="0"><title>2026-06-08: 0 contributions</title></rect>
  <rect x="732" y="138" width="11" height="11" rx="2" data-level="0"><title>2026-06-09: 0 contributions</title></rect>
  <rect x="732" y="151" width="11" height="11" rx="2" data-level="0"><title>2026-06-10: 0 contributions</title></rect>
  <rect x="732" y="164" width="11" height="11" rx="2" data-level="0"><title>2026-06-11: 0 contributions</title></rect>
  <rect x="732" y="177" width="11" height="11" rx="2" data-level="0"><title>2026-06-12: 0 contributions</title></rect>
  <rect x="732" y="190" width="11" height="11" rx="2" data-level="0"><title>2026-06-13: 0 contributions</title></rect>
  <rect x="745" y="112" width="11" height="11" rx="2" data-level="0"><title>2026-06-14: 0 contributions</title></rect>
  <rect x="745" y="125" width="11" height="11" rx="2" data-level="0"><title>2026-06-15: 0 contributions</title></rect>
  <rect x="745" y="138" width="11" height="11" rx="2" data-level="0"><title>2026-06-16: 0 contributions</title></rect>
  <rect x="745" y="151" width="11" height="11" rx="2" data-level="0"><title>2026-06-17: 0 contributions</title></rect>
  <rect x="745" y="164" width="11" height="11" rx="2" data-level="0"><title>2026-06-18: 0 contributions</title></rect>
  <rect x="745" y="177" width="11" height="11" rx="2" data-level="0"><title>2026-06-19: 0 contributions</title></rect>
  <rect x="745" y="190" width="11" height="11" rx="2" data-level="1"><title>2026-06-20: 2 contributions</title></rect>
  <rect x="758" y="112" width="11" height="11" rx="2" data-level="0"><title>2026-06-21: 0 contributions</title></rect>
  <rect x="758" y="125" width="11" height="11" rx="2" data-level="0"><title>2026-06-22: 0 contributions</title></rect>
  <rect x="758" y="138" width="11" height="11" rx="2" data-level="0"><title>2026-06-23: 0 contributions</title></rect>
  <text x="666" y="216" class="muted">Less</text>
  <rect x="706" y="206" width="10" height="10" rx="2" data-level="0"/>
  <rect x="724" y="206" width="10" height="10" rx="2" data-level="1"/>
  <rect x="742" y="206" width="10" height="10" rx="2" data-level="2"/>
  <rect x="760" y="206" width="10" height="10" rx="2" data-level="3"/>
  <rect x="778" y="206" width="10" height="10" rx="2" data-level="4"/>
  <text x="796" y="216" class="muted">More</text>

  <line x1="34" y1="246" x2="886" y2="246" stroke="#30363d" opacity="0.35"/>
  <text x="34" y="284" class="body">Activity overview</text>

  <!-- breakdown column (left) -->
  <text x="34" y="330" class="metric">99%</text>
  <text x="108" y="328" class="body">Commits</text>
  <text x="108" y="350" class="small">Dominant contribution shape</text>
  <text x="34" y="402" class="metric">1%</text>
  <text x="108" y="400" class="body">Pull requests</text>
  <text x="108" y="422" class="small">Issues &amp; code review were minor signals</text>

  <!-- summary panel (right) -->
  <rect class="panel" x="470" y="266" width="416" height="210" rx="10"/>
  <text x="494" y="304" class="ptitle">37 repositories touched</text>
  <text x="494" y="334" class="small">25 private + 12 public repos active in the last 2 years.</text>
  <text x="494" y="360" class="small">Private repo names and deployment details omitted.</text>
  <text x="494" y="386" class="small">Public API showed 14 non-restricted contributions.</text>
  <text x="494" y="412" class="small">Total includes GitHub's private-counted activity.</text>
  <text x="494" y="452" class="small">Snapshot: 23 Jun 2026</text>
</svg>
